<mxfile host="app.diagrams.net" modified="2023-12-14T19:24:05.905Z" agent="Mozilla/5.0 (Windows NT 10.0; Win64; x64) AppleWebKit/537.36 (KHTML, like Gecko) Chrome/119.0.0.0 Safari/537.36" etag="BKeKf1_VsZKvWcxBVyGA" version="22.1.8" type="github">
  <diagram id="mCyr1kptdM3YggUfpTlr" name="Page-1">
    <mxGraphModel dx="794" dy="1532" grid="1" gridSize="10" guides="1" tooltips="1" connect="1" arrows="1" fold="1" page="1" pageScale="1" pageWidth="850" pageHeight="1100" math="0" shadow="0">
      <root>
        <mxCell id="0" />
        <mxCell id="1" parent="0" />
        <mxCell id="CgL94wmr7panQ_Zg2Tnh-1" value="ГурманМеломан" style="swimlane;fontStyle=0;childLayout=stackLayout;horizontal=1;startSize=26;fillColor=none;horizontalStack=0;resizeParent=1;resizeParentMax=0;resizeLast=0;collapsible=1;marginBottom=0;" parent="1" vertex="1">
          <mxGeometry x="10" y="-940" width="160" height="224" as="geometry" />
        </mxCell>
        <mxCell id="CgL94wmr7panQ_Zg2Tnh-2" value="- ім&#39;я: String" style="text;strokeColor=none;fillColor=none;align=left;verticalAlign=top;spacingLeft=4;spacingRight=4;overflow=hidden;rotatable=0;points=[[0,0.5],[1,0.5]];portConstraint=eastwest;" parent="CgL94wmr7panQ_Zg2Tnh-1" vertex="1">
          <mxGeometry y="26" width="160" height="26" as="geometry" />
        </mxCell>
        <mxCell id="CgL94wmr7panQ_Zg2Tnh-3" value="- email: String" style="text;strokeColor=none;fillColor=none;align=left;verticalAlign=top;spacingLeft=4;spacingRight=4;overflow=hidden;rotatable=0;points=[[0,0.5],[1,0.5]];portConstraint=eastwest;" parent="CgL94wmr7panQ_Zg2Tnh-1" vertex="1">
          <mxGeometry y="52" width="160" height="26" as="geometry" />
        </mxCell>
        <mxCell id="CgL94wmr7panQ_Zg2Tnh-4" value="- пароль: String" style="text;strokeColor=none;fillColor=none;align=left;verticalAlign=top;spacingLeft=4;spacingRight=4;overflow=hidden;rotatable=0;points=[[0,0.5],[1,0.5]];portConstraint=eastwest;" parent="CgL94wmr7panQ_Zg2Tnh-1" vertex="1">
          <mxGeometry y="78" width="160" height="26" as="geometry" />
        </mxCell>
        <mxCell id="CgL94wmr7panQ_Zg2Tnh-5" value="- номерТелефону: String" style="text;strokeColor=none;fillColor=none;align=left;verticalAlign=top;spacingLeft=4;spacingRight=4;overflow=hidden;rotatable=0;points=[[0,0.5],[1,0.5]];portConstraint=eastwest;perimeterSpacing=1;" parent="CgL94wmr7panQ_Zg2Tnh-1" vertex="1">
          <mxGeometry y="104" width="160" height="26" as="geometry" />
        </mxCell>
        <mxCell id="CgL94wmr7panQ_Zg2Tnh-6" value="" style="endArrow=none;html=1;rounded=0;entryX=1;entryY=0;entryDx=0;entryDy=0;" parent="CgL94wmr7panQ_Zg2Tnh-1" target="CgL94wmr7panQ_Zg2Tnh-7" edge="1">
          <mxGeometry width="50" height="50" relative="1" as="geometry">
            <mxPoint y="130" as="sourcePoint" />
            <mxPoint x="60" y="130" as="targetPoint" />
          </mxGeometry>
        </mxCell>
        <mxCell id="CgL94wmr7panQ_Zg2Tnh-7" value="&lt;span style=&quot;color: rgb(0, 0, 0); font-family: Helvetica; font-size: 12px; font-style: normal; font-variant-ligatures: normal; font-variant-caps: normal; font-weight: 400; letter-spacing: normal; orphans: 2; text-align: left; text-indent: 0px; text-transform: none; widows: 2; word-spacing: 0px; -webkit-text-stroke-width: 0px; background-color: rgb(251, 251, 251); text-decoration-thickness: initial; text-decoration-style: initial; text-decoration-color: initial; float: none; display: inline !important;&quot;&gt;+ реєстрація()&lt;/span&gt;" style="text;whiteSpace=wrap;html=1;" parent="CgL94wmr7panQ_Zg2Tnh-1" vertex="1">
          <mxGeometry y="130" width="160" height="30" as="geometry" />
        </mxCell>
        <mxCell id="CgL94wmr7panQ_Zg2Tnh-8" value="+ авторизація()" style="text;whiteSpace=wrap;html=1;" parent="CgL94wmr7panQ_Zg2Tnh-1" vertex="1">
          <mxGeometry y="160" width="160" height="32" as="geometry" />
        </mxCell>
        <mxCell id="CgL94wmr7panQ_Zg2Tnh-9" value="&lt;span style=&quot;color: rgb(0, 0, 0); font-family: Helvetica; font-size: 12px; font-style: normal; font-variant-ligatures: normal; font-variant-caps: normal; font-weight: 400; letter-spacing: normal; orphans: 2; text-align: left; text-indent: 0px; text-transform: none; widows: 2; word-spacing: 0px; -webkit-text-stroke-width: 0px; background-color: rgb(251, 251, 251); text-decoration-thickness: initial; text-decoration-style: initial; text-decoration-color: initial; float: none; display: inline !important;&quot;&gt;+ отриматиПовідомлення()&lt;/span&gt;" style="text;whiteSpace=wrap;html=1;" parent="CgL94wmr7panQ_Zg2Tnh-1" vertex="1">
          <mxGeometry y="192" width="160" height="32" as="geometry" />
        </mxCell>
        <mxCell id="CgL94wmr7panQ_Zg2Tnh-10" value="Кухар" style="swimlane;fontStyle=0;childLayout=stackLayout;horizontal=1;startSize=26;fillColor=none;horizontalStack=0;resizeParent=1;resizeParentMax=0;resizeLast=0;collapsible=1;marginBottom=0;" parent="1" vertex="1">
          <mxGeometry x="550" y="-820" width="140" height="104" as="geometry" />
        </mxCell>
        <mxCell id="CgL94wmr7panQ_Zg2Tnh-11" value="- ім&#39;я: String" style="text;strokeColor=none;fillColor=none;align=left;verticalAlign=top;spacingLeft=4;spacingRight=4;overflow=hidden;rotatable=0;points=[[0,0.5],[1,0.5]];portConstraint=eastwest;" parent="CgL94wmr7panQ_Zg2Tnh-10" vertex="1">
          <mxGeometry y="26" width="140" height="26" as="geometry" />
        </mxCell>
        <mxCell id="CgL94wmr7panQ_Zg2Tnh-12" value="- email: String" style="text;strokeColor=none;fillColor=none;align=left;verticalAlign=top;spacingLeft=4;spacingRight=4;overflow=hidden;rotatable=0;points=[[0,0.5],[1,0.5]];portConstraint=eastwest;" parent="CgL94wmr7panQ_Zg2Tnh-10" vertex="1">
          <mxGeometry y="52" width="140" height="26" as="geometry" />
        </mxCell>
        <mxCell id="CgL94wmr7panQ_Zg2Tnh-13" value="- пароль: String" style="text;strokeColor=none;fillColor=none;align=left;verticalAlign=top;spacingLeft=4;spacingRight=4;overflow=hidden;rotatable=0;points=[[0,0.5],[1,0.5]];portConstraint=eastwest;" parent="CgL94wmr7panQ_Zg2Tnh-10" vertex="1">
          <mxGeometry y="78" width="140" height="26" as="geometry" />
        </mxCell>
        <mxCell id="CgL94wmr7panQ_Zg2Tnh-14" value="СписокРесторанів" style="swimlane;fontStyle=0;childLayout=stackLayout;horizontal=1;startSize=26;fillColor=none;horizontalStack=0;resizeParent=1;resizeParentMax=0;resizeLast=0;collapsible=1;marginBottom=0;" parent="1" vertex="1">
          <mxGeometry x="150" y="-1075" width="170" height="110" as="geometry" />
        </mxCell>
        <mxCell id="CgL94wmr7panQ_Zg2Tnh-15" value="- назва: String" style="text;strokeColor=none;fillColor=none;align=left;verticalAlign=top;spacingLeft=4;spacingRight=4;overflow=hidden;rotatable=0;points=[[0,0.5],[1,0.5]];portConstraint=eastwest;" parent="CgL94wmr7panQ_Zg2Tnh-14" vertex="1">
          <mxGeometry y="26" width="170" height="26" as="geometry" />
        </mxCell>
        <mxCell id="CgL94wmr7panQ_Zg2Tnh-16" value="- категорія: String" style="text;strokeColor=none;fillColor=none;align=left;verticalAlign=top;spacingLeft=4;spacingRight=4;overflow=hidden;rotatable=0;points=[[0,0.5],[1,0.5]];portConstraint=eastwest;" parent="CgL94wmr7panQ_Zg2Tnh-14" vertex="1">
          <mxGeometry y="52" width="170" height="26" as="geometry" />
        </mxCell>
        <mxCell id="CgL94wmr7panQ_Zg2Tnh-17" value="" style="endArrow=none;html=1;rounded=0;entryX=0.997;entryY=0.871;entryDx=0;entryDy=0;entryPerimeter=0;exitX=-0.007;exitY=-0.097;exitDx=0;exitDy=0;exitPerimeter=0;" parent="CgL94wmr7panQ_Zg2Tnh-14" source="CgL94wmr7panQ_Zg2Tnh-18" target="CgL94wmr7panQ_Zg2Tnh-16" edge="1">
          <mxGeometry width="50" height="50" relative="1" as="geometry">
            <mxPoint y="76.67000000000007" as="sourcePoint" />
            <mxPoint x="60" y="76.67000000000007" as="targetPoint" />
          </mxGeometry>
        </mxCell>
        <mxCell id="CgL94wmr7panQ_Zg2Tnh-18" value="&lt;span style=&quot;color: rgb(0, 0, 0); font-family: Helvetica; font-size: 12px; font-style: normal; font-variant-ligatures: normal; font-variant-caps: normal; font-weight: 400; letter-spacing: normal; orphans: 2; text-align: left; text-indent: 0px; text-transform: none; widows: 2; word-spacing: 0px; -webkit-text-stroke-width: 0px; background-color: rgb(251, 251, 251); text-decoration-thickness: initial; text-decoration-style: initial; text-decoration-color: initial; float: none; display: inline !important;&quot;&gt;+ вивестиСписокРесторанів()&lt;/span&gt;" style="text;whiteSpace=wrap;html=1;" parent="CgL94wmr7panQ_Zg2Tnh-14" vertex="1">
          <mxGeometry y="78" width="170" height="32" as="geometry" />
        </mxCell>
        <mxCell id="CgL94wmr7panQ_Zg2Tnh-19" style="edgeStyle=orthogonalEdgeStyle;rounded=0;orthogonalLoop=1;jettySize=auto;html=1;exitX=0.5;exitY=1;exitDx=0;exitDy=0;" parent="CgL94wmr7panQ_Zg2Tnh-14" source="CgL94wmr7panQ_Zg2Tnh-18" target="CgL94wmr7panQ_Zg2Tnh-18" edge="1">
          <mxGeometry relative="1" as="geometry" />
        </mxCell>
        <mxCell id="CgL94wmr7panQ_Zg2Tnh-20" value="Ресторан" style="swimlane;fontStyle=0;childLayout=stackLayout;horizontal=1;startSize=26;fillColor=none;horizontalStack=0;resizeParent=1;resizeParentMax=0;resizeLast=0;collapsible=1;marginBottom=0;" parent="1" vertex="1">
          <mxGeometry x="380" y="-1098" width="140" height="138" as="geometry" />
        </mxCell>
        <mxCell id="CgL94wmr7panQ_Zg2Tnh-21" value="- назва: String" style="text;strokeColor=none;fillColor=none;align=left;verticalAlign=top;spacingLeft=4;spacingRight=4;overflow=hidden;rotatable=0;points=[[0,0.5],[1,0.5]];portConstraint=eastwest;" parent="CgL94wmr7panQ_Zg2Tnh-20" vertex="1">
          <mxGeometry y="26" width="140" height="26" as="geometry" />
        </mxCell>
        <mxCell id="CgL94wmr7panQ_Zg2Tnh-22" value="- опис: String" style="text;strokeColor=none;fillColor=none;align=left;verticalAlign=top;spacingLeft=4;spacingRight=4;overflow=hidden;rotatable=0;points=[[0,0.5],[1,0.5]];portConstraint=eastwest;" parent="CgL94wmr7panQ_Zg2Tnh-20" vertex="1">
          <mxGeometry y="52" width="140" height="28" as="geometry" />
        </mxCell>
        <mxCell id="CgL94wmr7panQ_Zg2Tnh-23" value="- рейтинг: int" style="text;strokeColor=none;fillColor=none;align=left;verticalAlign=top;spacingLeft=4;spacingRight=4;overflow=hidden;rotatable=0;points=[[0,0.5],[1,0.5]];portConstraint=eastwest;" parent="CgL94wmr7panQ_Zg2Tnh-20" vertex="1">
          <mxGeometry y="80" width="140" height="26" as="geometry" />
        </mxCell>
        <mxCell id="CgL94wmr7panQ_Zg2Tnh-24" value="" style="endArrow=none;html=1;rounded=0;entryX=1;entryY=0;entryDx=0;entryDy=0;" parent="CgL94wmr7panQ_Zg2Tnh-20" target="CgL94wmr7panQ_Zg2Tnh-25" edge="1">
          <mxGeometry width="50" height="50" relative="1" as="geometry">
            <mxPoint y="106" as="sourcePoint" />
            <mxPoint x="60" y="106" as="targetPoint" />
          </mxGeometry>
        </mxCell>
        <mxCell id="CgL94wmr7panQ_Zg2Tnh-25" value="&lt;span style=&quot;color: rgb(0, 0, 0); font-family: Helvetica; font-size: 12px; font-style: normal; font-variant-ligatures: normal; font-variant-caps: normal; font-weight: 400; letter-spacing: normal; orphans: 2; text-align: left; text-indent: 0px; text-transform: none; widows: 2; word-spacing: 0px; -webkit-text-stroke-width: 0px; background-color: rgb(251, 251, 251); text-decoration-thickness: initial; text-decoration-style: initial; text-decoration-color: initial; float: none; display: inline !important;&quot;&gt;+ вивестиІнформРест()&lt;/span&gt;" style="text;whiteSpace=wrap;html=1;" parent="CgL94wmr7panQ_Zg2Tnh-20" vertex="1">
          <mxGeometry y="106" width="140" height="32" as="geometry" />
        </mxCell>
        <mxCell id="CgL94wmr7panQ_Zg2Tnh-26" value="Страва" style="swimlane;fontStyle=0;childLayout=stackLayout;horizontal=1;startSize=26;fillColor=none;horizontalStack=0;resizeParent=1;resizeParentMax=0;resizeLast=0;collapsible=1;marginBottom=0;" parent="1" vertex="1">
          <mxGeometry x="600" y="-1061" width="150" height="136" as="geometry" />
        </mxCell>
        <mxCell id="CgL94wmr7panQ_Zg2Tnh-27" value="- назва: String" style="text;strokeColor=none;fillColor=none;align=left;verticalAlign=top;spacingLeft=4;spacingRight=4;overflow=hidden;rotatable=0;points=[[0,0.5],[1,0.5]];portConstraint=eastwest;" parent="CgL94wmr7panQ_Zg2Tnh-26" vertex="1">
          <mxGeometry y="26" width="150" height="26" as="geometry" />
        </mxCell>
        <mxCell id="CgL94wmr7panQ_Zg2Tnh-28" value="- склад: String" style="text;strokeColor=none;fillColor=none;align=left;verticalAlign=top;spacingLeft=4;spacingRight=4;overflow=hidden;rotatable=0;points=[[0,0.5],[1,0.5]];portConstraint=eastwest;" parent="CgL94wmr7panQ_Zg2Tnh-26" vertex="1">
          <mxGeometry y="52" width="150" height="26" as="geometry" />
        </mxCell>
        <mxCell id="CgL94wmr7panQ_Zg2Tnh-29" value="- ціна: float" style="text;strokeColor=none;fillColor=none;align=left;verticalAlign=top;spacingLeft=4;spacingRight=4;overflow=hidden;rotatable=0;points=[[0,0.5],[1,0.5]];portConstraint=eastwest;" parent="CgL94wmr7panQ_Zg2Tnh-26" vertex="1">
          <mxGeometry y="78" width="150" height="26" as="geometry" />
        </mxCell>
        <mxCell id="CgL94wmr7panQ_Zg2Tnh-30" value="" style="endArrow=none;html=1;rounded=0;entryX=0.996;entryY=0.876;entryDx=0;entryDy=0;entryPerimeter=0;exitX=0.003;exitY=0.876;exitDx=0;exitDy=0;exitPerimeter=0;" parent="CgL94wmr7panQ_Zg2Tnh-26" source="CgL94wmr7panQ_Zg2Tnh-29" target="CgL94wmr7panQ_Zg2Tnh-29" edge="1">
          <mxGeometry width="50" height="50" relative="1" as="geometry">
            <mxPoint y="104" as="sourcePoint" />
            <mxPoint x="60" y="104" as="targetPoint" />
          </mxGeometry>
        </mxCell>
        <mxCell id="CgL94wmr7panQ_Zg2Tnh-31" value="&lt;span style=&quot;color: rgb(0, 0, 0); font-family: Helvetica; font-size: 12px; font-style: normal; font-variant-ligatures: normal; font-variant-caps: normal; font-weight: 400; letter-spacing: normal; orphans: 2; text-align: left; text-indent: 0px; text-transform: none; widows: 2; word-spacing: 0px; -webkit-text-stroke-width: 0px; background-color: rgb(251, 251, 251); text-decoration-thickness: initial; text-decoration-style: initial; text-decoration-color: initial; float: none; display: inline !important;&quot;&gt;+ вивестиІнформСтрави()&lt;/span&gt;" style="text;whiteSpace=wrap;html=1;" parent="CgL94wmr7panQ_Zg2Tnh-26" vertex="1">
          <mxGeometry y="104" width="150" height="32" as="geometry" />
        </mxCell>
        <mxCell id="CgL94wmr7panQ_Zg2Tnh-32" value="Замовлення" style="swimlane;fontStyle=0;childLayout=stackLayout;horizontal=1;startSize=26;fillColor=none;horizontalStack=0;resizeParent=1;resizeParentMax=0;resizeLast=0;collapsible=1;marginBottom=0;" parent="1" vertex="1">
          <mxGeometry x="235" y="-820" width="205" height="276" as="geometry" />
        </mxCell>
        <mxCell id="CgL94wmr7panQ_Zg2Tnh-33" value="- датаЗамовлення: Date" style="text;strokeColor=none;fillColor=none;align=left;verticalAlign=top;spacingLeft=4;spacingRight=4;overflow=hidden;rotatable=0;points=[[0,0.5],[1,0.5]];portConstraint=eastwest;" parent="CgL94wmr7panQ_Zg2Tnh-32" vertex="1">
          <mxGeometry y="26" width="205" height="26" as="geometry" />
        </mxCell>
        <mxCell id="CgL94wmr7panQ_Zg2Tnh-34" value="- статус: String" style="text;strokeColor=none;fillColor=none;align=left;verticalAlign=top;spacingLeft=4;spacingRight=4;overflow=hidden;rotatable=0;points=[[0,0.5],[1,0.5]];portConstraint=eastwest;" parent="CgL94wmr7panQ_Zg2Tnh-32" vertex="1">
          <mxGeometry y="52" width="205" height="26" as="geometry" />
        </mxCell>
        <mxCell id="CgL94wmr7panQ_Zg2Tnh-35" value="- адресаГурманаМеломана: String" style="text;strokeColor=none;fillColor=none;align=left;verticalAlign=top;spacingLeft=4;spacingRight=4;overflow=hidden;rotatable=0;points=[[0,0.5],[1,0.5]];portConstraint=eastwest;" parent="CgL94wmr7panQ_Zg2Tnh-32" vertex="1">
          <mxGeometry y="78" width="205" height="42" as="geometry" />
        </mxCell>
        <mxCell id="CgL94wmr7panQ_Zg2Tnh-36" value="" style="endArrow=none;html=1;rounded=0;entryX=1.003;entryY=0.998;entryDx=0;entryDy=0;entryPerimeter=0;" parent="CgL94wmr7panQ_Zg2Tnh-32" target="CgL94wmr7panQ_Zg2Tnh-35" edge="1">
          <mxGeometry width="50" height="50" relative="1" as="geometry">
            <mxPoint y="120" as="sourcePoint" />
            <mxPoint x="175" y="120" as="targetPoint" />
          </mxGeometry>
        </mxCell>
        <mxCell id="CgL94wmr7panQ_Zg2Tnh-37" value="+ створитиЗамовлення()" style="text;whiteSpace=wrap;html=1;" parent="CgL94wmr7panQ_Zg2Tnh-32" vertex="1">
          <mxGeometry y="120" width="205" height="30" as="geometry" />
        </mxCell>
        <mxCell id="CgL94wmr7panQ_Zg2Tnh-38" value="&lt;span style=&quot;color: rgb(0, 0, 0); font-family: Helvetica; font-size: 12px; font-style: normal; font-variant-ligatures: normal; font-variant-caps: normal; font-weight: 400; letter-spacing: normal; orphans: 2; text-align: left; text-indent: 0px; text-transform: none; widows: 2; word-spacing: 0px; -webkit-text-stroke-width: 0px; background-color: rgb(251, 251, 251); text-decoration-thickness: initial; text-decoration-style: initial; text-decoration-color: initial; float: none; display: inline !important;&quot;&gt;+ змінитиСтанЗамовлення()&lt;/span&gt;" style="text;whiteSpace=wrap;html=1;" parent="CgL94wmr7panQ_Zg2Tnh-32" vertex="1">
          <mxGeometry y="150" width="205" height="30" as="geometry" />
        </mxCell>
        <mxCell id="CgL94wmr7panQ_Zg2Tnh-39" value="&lt;span style=&quot;color: rgb(0, 0, 0); font-family: Helvetica; font-size: 12px; font-style: normal; font-variant-ligatures: normal; font-variant-caps: normal; font-weight: 400; letter-spacing: normal; orphans: 2; text-align: left; text-indent: 0px; text-transform: none; widows: 2; word-spacing: 0px; -webkit-text-stroke-width: 0px; background-color: rgb(251, 251, 251); text-decoration-thickness: initial; text-decoration-style: initial; text-decoration-color: initial; float: none; display: inline !important;&quot;&gt;+ вивестиІнформЗамовлення()&lt;/span&gt;" style="text;whiteSpace=wrap;html=1;" parent="CgL94wmr7panQ_Zg2Tnh-32" vertex="1">
          <mxGeometry y="180" width="205" height="32" as="geometry" />
        </mxCell>
        <mxCell id="CgL94wmr7panQ_Zg2Tnh-40" value="&lt;span style=&quot;color: rgb(0, 0, 0); font-family: Helvetica; font-size: 12px; font-style: normal; font-variant-ligatures: normal; font-variant-caps: normal; font-weight: 400; letter-spacing: normal; orphans: 2; text-align: left; text-indent: 0px; text-transform: none; widows: 2; word-spacing: 0px; -webkit-text-stroke-width: 0px; background-color: rgb(251, 251, 251); text-decoration-thickness: initial; text-decoration-style: initial; text-decoration-color: initial; float: none; display: inline !important;&quot;&gt;+ вивестиІнформСтрави()&lt;/span&gt;" style="text;whiteSpace=wrap;html=1;" parent="CgL94wmr7panQ_Zg2Tnh-32" vertex="1">
          <mxGeometry y="212" width="205" height="32" as="geometry" />
        </mxCell>
        <mxCell id="CgL94wmr7panQ_Zg2Tnh-41" value="&lt;span style=&quot;color: rgb(0, 0, 0); font-family: Helvetica; font-size: 12px; font-style: normal; font-variant-ligatures: normal; font-variant-caps: normal; font-weight: 400; letter-spacing: normal; orphans: 2; text-align: left; text-indent: 0px; text-transform: none; widows: 2; word-spacing: 0px; -webkit-text-stroke-width: 0px; background-color: rgb(251, 251, 251); text-decoration-thickness: initial; text-decoration-style: initial; text-decoration-color: initial; float: none; display: inline !important;&quot;&gt;+ надіслатиПовідомлення()&lt;/span&gt;" style="text;whiteSpace=wrap;html=1;" parent="CgL94wmr7panQ_Zg2Tnh-32" vertex="1">
          <mxGeometry y="244" width="205" height="32" as="geometry" />
        </mxCell>
        <mxCell id="CgL94wmr7panQ_Zg2Tnh-42" style="rounded=0;orthogonalLoop=1;jettySize=auto;html=1;exitX=0.998;exitY=0.727;exitDx=0;exitDy=0;endArrow=openThin;endFill=0;endSize=10;startArrow=none;startFill=0;entryX=0;entryY=0.5;entryDx=0;entryDy=0;exitPerimeter=0;" parent="1" source="CgL94wmr7panQ_Zg2Tnh-15" target="CgL94wmr7panQ_Zg2Tnh-22" edge="1">
          <mxGeometry relative="1" as="geometry">
            <mxPoint x="303" y="-1022" as="sourcePoint" />
            <mxPoint x="380" y="-979" as="targetPoint" />
          </mxGeometry>
        </mxCell>
        <mxCell id="CgL94wmr7panQ_Zg2Tnh-43" value="Має" style="edgeLabel;html=1;align=center;verticalAlign=middle;resizable=0;points=[];" parent="CgL94wmr7panQ_Zg2Tnh-42" vertex="1" connectable="0">
          <mxGeometry x="-0.0028" y="-2" relative="1" as="geometry">
            <mxPoint as="offset" />
          </mxGeometry>
        </mxCell>
        <mxCell id="CgL94wmr7panQ_Zg2Tnh-44" style="rounded=0;orthogonalLoop=1;jettySize=auto;html=1;exitX=1;exitY=0.5;exitDx=0;exitDy=0;entryX=-0.009;entryY=-0.092;entryDx=0;entryDy=0;endSize=10;endArrow=none;endFill=0;startArrow=diamondThin;startFill=1;startSize=10;entryPerimeter=0;" parent="1" source="CgL94wmr7panQ_Zg2Tnh-21" target="CgL94wmr7panQ_Zg2Tnh-29" edge="1">
          <mxGeometry relative="1" as="geometry">
            <mxPoint x="600" y="-944" as="targetPoint" />
          </mxGeometry>
        </mxCell>
        <mxCell id="CgL94wmr7panQ_Zg2Tnh-45" value="Має" style="edgeLabel;html=1;align=center;verticalAlign=middle;resizable=0;points=[];" parent="CgL94wmr7panQ_Zg2Tnh-44" vertex="1" connectable="0">
          <mxGeometry x="-0.1026" y="3" relative="1" as="geometry">
            <mxPoint as="offset" />
          </mxGeometry>
        </mxCell>
        <mxCell id="CgL94wmr7panQ_Zg2Tnh-46" style="rounded=0;orthogonalLoop=1;jettySize=auto;html=1;exitX=0;exitY=0.5;exitDx=0;exitDy=0;entryX=1;entryY=-0.192;entryDx=0;entryDy=0;entryPerimeter=0;startArrow=openThin;startFill=0;endArrow=none;endFill=0;endSize=10;startSize=10;" parent="1" source="CgL94wmr7panQ_Zg2Tnh-35" target="CgL94wmr7panQ_Zg2Tnh-4" edge="1">
          <mxGeometry relative="1" as="geometry" />
        </mxCell>
        <mxCell id="CgL94wmr7panQ_Zg2Tnh-47" value="Створює" style="edgeLabel;html=1;align=center;verticalAlign=middle;resizable=0;points=[];" parent="CgL94wmr7panQ_Zg2Tnh-46" vertex="1" connectable="0">
          <mxGeometry x="0.2174" y="-2" relative="1" as="geometry">
            <mxPoint as="offset" />
          </mxGeometry>
        </mxCell>
        <mxCell id="CgL94wmr7panQ_Zg2Tnh-48" style="rounded=0;orthogonalLoop=1;jettySize=auto;html=1;exitX=0.5;exitY=0;exitDx=0;exitDy=0;endArrow=diamondThin;endFill=0;endSize=10;entryX=0;entryY=0.25;entryDx=0;entryDy=0;startArrow=none;startFill=0;startSize=10;" parent="1" source="CgL94wmr7panQ_Zg2Tnh-50" target="CgL94wmr7panQ_Zg2Tnh-31" edge="1">
          <mxGeometry relative="1" as="geometry">
            <mxPoint x="671.6800000000001" y="-928.01" as="targetPoint" />
          </mxGeometry>
        </mxCell>
        <mxCell id="CgL94wmr7panQ_Zg2Tnh-49" value="Має" style="edgeLabel;html=1;align=center;verticalAlign=middle;resizable=0;points=[];" parent="CgL94wmr7panQ_Zg2Tnh-48" vertex="1" connectable="0">
          <mxGeometry x="0.2095" y="-2" relative="1" as="geometry">
            <mxPoint x="-31" y="11" as="offset" />
          </mxGeometry>
        </mxCell>
        <mxCell id="CgL94wmr7panQ_Zg2Tnh-50" value="ОдиницяЗамовлення" style="swimlane;fontStyle=0;childLayout=stackLayout;horizontal=1;startSize=26;fillColor=none;horizontalStack=0;resizeParent=1;resizeParentMax=0;resizeLast=0;collapsible=1;marginBottom=0;" parent="1" vertex="1">
          <mxGeometry x="425" y="-910" width="140" height="80" as="geometry">
            <mxRectangle x="910" y="-884" width="160" height="30" as="alternateBounds" />
          </mxGeometry>
        </mxCell>
        <mxCell id="CgL94wmr7panQ_Zg2Tnh-51" value="- кількість: int" style="text;strokeColor=none;fillColor=none;align=left;verticalAlign=top;spacingLeft=4;spacingRight=4;overflow=hidden;rotatable=0;points=[[0,0.5],[1,0.5]];portConstraint=eastwest;" parent="CgL94wmr7panQ_Zg2Tnh-50" vertex="1">
          <mxGeometry y="26" width="140" height="26" as="geometry" />
        </mxCell>
        <mxCell id="CgL94wmr7panQ_Zg2Tnh-52" value="- ціна: float" style="text;strokeColor=none;fillColor=none;align=left;verticalAlign=top;spacingLeft=4;spacingRight=4;overflow=hidden;rotatable=0;points=[[0,0.5],[1,0.5]];portConstraint=eastwest;" parent="CgL94wmr7panQ_Zg2Tnh-50" vertex="1">
          <mxGeometry y="52" width="140" height="28" as="geometry" />
        </mxCell>
        <mxCell id="CgL94wmr7panQ_Zg2Tnh-53" style="rounded=0;orthogonalLoop=1;jettySize=auto;html=1;entryX=0.59;entryY=0.011;entryDx=0;entryDy=0;entryPerimeter=0;endArrow=diamondThin;endFill=1;strokeWidth=1;endSize=10;startArrow=none;startFill=0;exitX=0.945;exitY=1.133;exitDx=0;exitDy=0;exitPerimeter=0;" parent="1" source="CgL94wmr7panQ_Zg2Tnh-58" target="CgL94wmr7panQ_Zg2Tnh-32" edge="1">
          <mxGeometry relative="1" as="geometry">
            <mxPoint x="420" y="-840" as="sourcePoint" />
          </mxGeometry>
        </mxCell>
        <mxCell id="CgL94wmr7panQ_Zg2Tnh-54" value="Має" style="edgeLabel;html=1;align=center;verticalAlign=middle;resizable=0;points=[];" parent="CgL94wmr7panQ_Zg2Tnh-53" vertex="1" connectable="0">
          <mxGeometry x="-0.2742" y="2" relative="1" as="geometry">
            <mxPoint as="offset" />
          </mxGeometry>
        </mxCell>
        <mxCell id="CgL94wmr7panQ_Zg2Tnh-55" style="rounded=0;orthogonalLoop=1;jettySize=auto;html=1;exitX=1;exitY=0.5;exitDx=0;exitDy=0;entryX=0;entryY=0.5;entryDx=0;entryDy=0;startArrow=openThin;startFill=0;endSize=10;endArrow=none;endFill=0;targetPerimeterSpacing=10;startSize=10;" parent="1" source="CgL94wmr7panQ_Zg2Tnh-35" target="CgL94wmr7panQ_Zg2Tnh-10" edge="1">
          <mxGeometry relative="1" as="geometry" />
        </mxCell>
        <mxCell id="CgL94wmr7panQ_Zg2Tnh-56" value="Змінює" style="edgeLabel;html=1;align=center;verticalAlign=middle;resizable=0;points=[];" parent="CgL94wmr7panQ_Zg2Tnh-55" vertex="1" connectable="0">
          <mxGeometry x="-0.0033" y="-1" relative="1" as="geometry">
            <mxPoint as="offset" />
          </mxGeometry>
        </mxCell>
        <mxCell id="CgL94wmr7panQ_Zg2Tnh-57" value="1" style="text;html=1;align=center;verticalAlign=middle;resizable=0;points=[];autosize=1;strokeColor=none;fillColor=none;" parent="1" vertex="1">
          <mxGeometry x="315" y="-1059" width="30" height="30" as="geometry" />
        </mxCell>
        <mxCell id="CgL94wmr7panQ_Zg2Tnh-58" value="1...*" style="text;html=1;align=center;verticalAlign=middle;resizable=0;points=[];autosize=1;strokeColor=none;fillColor=none;" parent="1" vertex="1">
          <mxGeometry x="385" y="-885" width="40" height="30" as="geometry" />
        </mxCell>
        <mxCell id="CgL94wmr7panQ_Zg2Tnh-59" value="1" style="text;html=1;align=center;verticalAlign=middle;resizable=0;points=[];autosize=1;strokeColor=none;fillColor=none;" parent="1" vertex="1">
          <mxGeometry x="180" y="-885" width="30" height="30" as="geometry" />
        </mxCell>
        <mxCell id="CgL94wmr7panQ_Zg2Tnh-60" value="1" style="text;html=1;align=center;verticalAlign=middle;resizable=0;points=[];autosize=1;strokeColor=none;fillColor=none;" parent="1" vertex="1">
          <mxGeometry x="290" y="-850" width="30" height="30" as="geometry" />
        </mxCell>
        <mxCell id="CgL94wmr7panQ_Zg2Tnh-61" value="1" style="text;html=1;align=center;verticalAlign=middle;resizable=0;points=[];autosize=1;strokeColor=none;fillColor=none;" parent="1" vertex="1">
          <mxGeometry x="520" y="-790" width="30" height="30" as="geometry" />
        </mxCell>
        <mxCell id="CgL94wmr7panQ_Zg2Tnh-62" value="*" style="text;html=1;align=center;verticalAlign=middle;resizable=0;points=[];autosize=1;strokeColor=none;fillColor=none;" parent="1" vertex="1">
          <mxGeometry x="440" y="-770" width="30" height="30" as="geometry" />
        </mxCell>
        <mxCell id="CgL94wmr7panQ_Zg2Tnh-63" value="1" style="text;html=1;align=center;verticalAlign=middle;resizable=0;points=[];autosize=1;strokeColor=none;fillColor=none;" parent="1" vertex="1">
          <mxGeometry x="565" y="-970" width="30" height="30" as="geometry" />
        </mxCell>
        <mxCell id="CgL94wmr7panQ_Zg2Tnh-64" value="1" style="text;html=1;align=center;verticalAlign=middle;resizable=0;points=[];autosize=1;strokeColor=none;fillColor=none;" parent="1" vertex="1">
          <mxGeometry x="520" y="-1080" width="30" height="30" as="geometry" />
        </mxCell>
        <mxCell id="CgL94wmr7panQ_Zg2Tnh-65" style="rounded=0;orthogonalLoop=1;jettySize=auto;html=1;exitX=0.5;exitY=0;exitDx=0;exitDy=0;entryX=0.01;entryY=0.138;entryDx=0;entryDy=0;entryPerimeter=0;endArrow=diamondThin;endFill=1;endSize=10;" parent="1" source="CgL94wmr7panQ_Zg2Tnh-1" target="CgL94wmr7panQ_Zg2Tnh-15" edge="1">
          <mxGeometry relative="1" as="geometry" />
        </mxCell>
        <mxCell id="CgL94wmr7panQ_Zg2Tnh-66" value="Переглядає" style="edgeLabel;html=1;align=center;verticalAlign=middle;resizable=0;points=[];" parent="CgL94wmr7panQ_Zg2Tnh-65" vertex="1" connectable="0">
          <mxGeometry x="-0.2078" y="4" relative="1" as="geometry">
            <mxPoint x="-4" y="1" as="offset" />
          </mxGeometry>
        </mxCell>
        <mxCell id="CgL94wmr7panQ_Zg2Tnh-67" value="1" style="text;html=1;align=center;verticalAlign=middle;resizable=0;points=[];autosize=1;strokeColor=none;fillColor=none;" parent="1" vertex="1">
          <mxGeometry x="60" y="-970" width="30" height="30" as="geometry" />
        </mxCell>
        <mxCell id="CgL94wmr7panQ_Zg2Tnh-68" value="*" style="text;html=1;align=center;verticalAlign=middle;resizable=0;points=[];autosize=1;strokeColor=none;fillColor=none;" parent="1" vertex="1">
          <mxGeometry x="110" y="-1050" width="30" height="30" as="geometry" />
        </mxCell>
        <mxCell id="CgL94wmr7panQ_Zg2Tnh-69" value="*" style="text;html=1;align=center;verticalAlign=middle;resizable=0;points=[];autosize=1;strokeColor=none;fillColor=none;" parent="1" vertex="1">
          <mxGeometry x="350" y="-1061" width="30" height="30" as="geometry" />
        </mxCell>
        <mxCell id="CgL94wmr7panQ_Zg2Tnh-70" value="*" style="text;html=1;align=center;verticalAlign=middle;resizable=0;points=[];autosize=1;strokeColor=none;fillColor=none;" parent="1" vertex="1">
          <mxGeometry x="570" y="-1024" width="30" height="30" as="geometry" />
        </mxCell>
        <mxCell id="CgL94wmr7panQ_Zg2Tnh-71" value="*" style="text;html=1;align=center;verticalAlign=middle;resizable=0;points=[];autosize=1;strokeColor=none;fillColor=none;" parent="1" vertex="1">
          <mxGeometry x="480" y="-940" width="30" height="30" as="geometry" />
        </mxCell>
        <mxCell id="CgL94wmr7panQ_Zg2Tnh-72" value="0...*" style="text;html=1;align=center;verticalAlign=middle;resizable=0;points=[];autosize=1;strokeColor=none;fillColor=none;" parent="1" vertex="1">
          <mxGeometry x="180" y="-730" width="40" height="30" as="geometry" />
        </mxCell>
      </root>
    </mxGraphModel>
  </diagram>
</mxfile>
